# File produced by Open Asset Import Library (http://www.assimp.sf.net)
# (assimp v3.1.128981410)

mtllib list.mtl

# vertex positions
v -13.638111 0.107055 -10.061308
v -13.638111 0.107055 10.061308
v 13.471629 0.107055 10.061308
v 13.471629 0.107055 -10.061308
v -13.333006 0.873564 10.007483
v -13.333006 0.053827 10.007483
v -13.333006 0.053826 -10.007483
v -13.333006 0.873564 -10.007483
v 13.333006 0.873564 -10.007483
v 13.333006 0.053827 -10.007483
v 13.333006 0.053826 10.007483
v 13.333006 0.873564 10.007483
v -13.333006 0.927390 -10.115134
v -13.279179 0.873564 -10.061308
v -12.184714 0.873564 -10.061308
v -12.184714 0.927390 -10.115134
v -13.386832 0.927390 -10.061308
v -13.386832 0.927390 10.061308
v -13.279179 0.053826 -10.061308
v -13.279179 0.873564 10.061308
v -13.333006 0.927390 10.115134
v -12.184714 0.927390 10.115134
v -12.184714 0.873564 10.061308
v -13.279179 0.053827 10.061308
v -14.230203 0.873564 -10.061308
v -14.176377 0.927390 -10.061308
v -14.176377 0.927390 -11.104575
v -14.230203 0.873564 -11.104575
v -14.230203 0.873564 10.061308
v -14.176377 0.927390 10.061308
v -14.230203 0.873564 11.104575
v -14.176377 0.927390 11.104575
v -14.176377 -0.000000 -10.061308
v -14.230203 0.053826 -10.061308
v -14.230203 0.053826 -11.104575
v -14.176377 -0.000000 -11.104575
v -14.176377 -0.000000 10.061308
v -14.230203 0.053827 10.061308
v -14.176377 -0.000000 11.104575
v -14.230203 0.053827 11.104575
v -13.333006 -0.000000 -10.115134
v -12.184714 -0.000000 -10.115134
v -12.184714 0.053826 -10.061308
v -13.386832 -0.000000 -10.061308
v -13.386832 -0.000000 10.061308
v -13.333006 -0.000000 10.115134
v -12.184714 0.053827 10.061308
v -12.184714 -0.000000 10.115134
v -14.176377 0.053827 11.158400
v -13.333006 -0.000000 11.104575
v -13.333006 0.053827 11.158400
v -14.176377 0.873564 11.158400
v -12.184714 -0.000000 11.104575
v -12.184714 0.053827 11.158400
v -13.333006 0.927390 11.104575
v -13.333006 0.873564 11.158400
v -12.184714 0.873564 11.158400
v -12.184714 0.927390 11.104575
v -14.176377 0.053826 -11.158400
v -14.176377 0.873564 -11.158400
v -13.333006 0.053826 -11.158400
v -13.333006 -0.000000 -11.104575
v -12.184714 0.053826 -11.158400
v -12.184714 -0.000000 -11.104575
v -13.333006 0.927390 -11.104575
v -13.333006 0.873564 -11.158400
v -12.184714 0.927390 -11.104575
v -12.184714 0.873564 -11.158400
v -12.130888 0.053827 10.115134
v -12.130888 0.873564 10.115134
v -12.130888 0.053827 11.104575
v -12.130888 0.873564 11.104575
v -12.130888 0.053826 -10.115134
v -12.130888 0.053826 -11.104575
v -12.130888 0.873564 -10.115134
v -12.130888 0.873564 -11.104575
v 13.333006 0.927390 10.115134
v 13.279179 0.873564 10.061308
v 12.184714 0.873564 10.061308
v 12.184714 0.927390 10.115134
v 13.386832 0.927390 10.061308
v 13.386832 0.927390 -10.061308
v 13.279179 0.053826 10.061308
v 13.279179 0.873564 -10.061308
v 13.333006 0.927390 -10.115134
v 12.184714 0.927390 -10.115134
v 12.184714 0.873564 -10.061308
v 13.279179 0.053827 -10.061308
v 14.230203 0.873564 10.061308
v 14.176376 0.927390 10.061308
v 14.176376 0.927390 11.104575
v 14.230203 0.873564 11.104575
v 14.230203 0.873564 -10.061308
v 14.176376 0.927390 -10.061308
v 14.230203 0.873564 -11.104575
v 14.176376 0.927390 -11.104575
v 14.176376 -0.000000 10.061308
v 14.230203 0.053826 10.061308
v 14.230203 0.053826 11.104575
v 14.176376 -0.000000 11.104575
v 14.176376 -0.000000 -10.061308
v 14.230203 0.053827 -10.061308
v 14.176376 -0.000000 -11.104575
v 14.230203 0.053827 -11.104575
v 13.333006 -0.000000 10.115134
v 12.184714 -0.000000 10.115134
v 12.184714 0.053826 10.061308
v 13.386832 -0.000000 10.061308
v 13.386832 -0.000000 -10.061308
v 13.333006 -0.000000 -10.115134
v 12.184714 0.053827 -10.061308
v 12.184714 -0.000000 -10.115134
v 14.176376 0.053827 -11.158400
v 13.333006 -0.000000 -11.104575
v 13.333006 0.053827 -11.158400
v 14.176376 0.873564 -11.158400
v 12.184714 -0.000000 -11.104575
v 12.184714 0.053827 -11.158400
v 13.333006 0.927390 -11.104575
v 13.333006 0.873564 -11.158400
v 12.184714 0.873564 -11.158400
v 12.184714 0.927390 -11.104575
v 14.176376 0.053826 11.158400
v 14.176376 0.873564 11.158400
v 13.333006 0.053826 11.158400
v 13.333006 -0.000000 11.104575
v 12.184714 0.053826 11.158400
v 12.184714 -0.000000 11.104575
v 13.333006 0.927390 11.104575
v 13.333006 0.873564 11.158400
v 12.184714 0.927390 11.104575
v 12.184714 0.873564 11.158400
v 12.130888 0.053827 -10.115134
v 12.130888 0.873564 -10.115134
v 12.130888 0.053827 -11.104575
v 12.130888 0.873564 -11.104575
v 12.130888 0.053826 10.115134
v 12.130888 0.053826 11.104575
v 12.130888 0.873564 10.115134
v 12.130888 0.873564 11.104575

# UV coordinates
vt 0.691133 0.928725
vt 0.007795 0.928725
vt 0.007795 0.008114
vt 0.691133 0.008114
vt 0.987741 0.499057
vt 0.967583 0.499057
vt 0.967583 0.006873
vt 0.987741 0.006873
vt 0.986899 0.996013
vt 0.966741 0.996003
vt 0.966994 0.503819
vt 0.987152 0.503829
vt 0.882355 0.585090
vt 0.881032 0.583767
vt 0.881032 0.556853
vt 0.882355 0.556853
vt 0.989064 0.005549
vt 0.989064 0.500380
vt 0.987741 0.005549
vt 0.967583 0.005549
vt 0.906326 0.031009
vt 0.905003 0.029686
vt 0.933240 0.029686
vt 0.933240 0.031009
vt 0.987741 0.500380
vt 0.967583 0.500380
vt 0.738717 0.525840
vt 0.740041 0.525840
vt 0.740041 0.551495
vt 0.738717 0.551495
vt 0.738717 0.031009
vt 0.740041 0.031009
vt 0.738717 0.005355
vt 0.740041 0.005355
vt 0.717236 0.525840
vt 0.718559 0.525840
vt 0.718559 0.551495
vt 0.717236 0.551495
vt 0.717236 0.031009
vt 0.718559 0.031009
vt 0.717236 0.005355
vt 0.718559 0.005355
vt 0.768149 0.031009
vt 0.766825 0.029686
vt 0.795062 0.029686
vt 0.795062 0.031009
vt 0.966259 0.005549
vt 0.966259 0.500380
vt 0.766825 0.527164
vt 0.768149 0.525840
vt 0.795062 0.525840
vt 0.795062 0.527164
vt 0.746086 0.552819
vt 0.746086 0.551495
vt 0.766825 0.551495
vt 0.766825 0.552819
vt 0.718559 0.004031
vt 0.738717 0.004031
vt 0.795062 0.551495
vt 0.795062 0.552819
vt 0.905003 0.005355
vt 0.905003 0.004031
vt 0.933240 0.004031
vt 0.933240 0.005355
vt 0.884263 0.005355
vt 0.884263 0.004031
vt 0.718559 0.552819
vt 0.738717 0.552819
vt 0.746086 0.005355
vt 0.746086 0.004031
vt 0.766825 0.004031
vt 0.766825 0.005355
vt 0.795062 0.004031
vt 0.795062 0.005355
vt 0.908010 0.605830
vt 0.906686 0.605830
vt 0.906686 0.585090
vt 0.908010 0.585090
vt 0.906686 0.556853
vt 0.908010 0.556853
vt 0.876476 0.590064
vt 0.876476 0.588741
vt 0.896634 0.588741
vt 0.896634 0.590064
vt 0.875153 0.590064
vt 0.876476 0.614395
vt 0.875153 0.614395
vt 0.897958 0.590064
vt 0.897958 0.614395
vt 0.896634 0.614395
vt 0.896634 0.615719
vt 0.876476 0.615719
vt 0.853062 0.638644
vt 0.851739 0.638644
vt 0.851739 0.614313
vt 0.853062 0.614313
vt 0.853062 0.639968
vt 0.873220 0.638644
vt 0.873220 0.639968
vt 0.874544 0.638644
vt 0.873220 0.614313
vt 0.874544 0.614313
vt 0.853062 0.612989
vt 0.873220 0.612989
vt 0.765667 0.577592
vt 0.766990 0.578916
vt 0.766990 0.605830
vt 0.765667 0.605830
vt 0.988476 0.502507
vt 0.988221 0.997337
vt 0.987152 0.502506
vt 0.966994 0.502496
vt 0.938509 0.526035
vt 0.939833 0.527359
vt 0.911595 0.527359
vt 0.911595 0.526035
vt 0.986898 0.997337
vt 0.966740 0.997326
vt 0.822231 0.525840
vt 0.823555 0.525840
vt 0.823555 0.551495
vt 0.822231 0.551495
vt 0.822231 0.031009
vt 0.823555 0.031009
vt 0.822231 0.005355
vt 0.823555 0.005355
vt 0.800749 0.525840
vt 0.802073 0.525840
vt 0.802073 0.551495
vt 0.800749 0.551495
vt 0.800749 0.031009
vt 0.802073 0.031009
vt 0.800749 0.005355
vt 0.802073 0.005355
vt 0.856514 0.525840
vt 0.857837 0.527164
vt 0.829600 0.527164
vt 0.829600 0.525840
vt 0.965671 0.502495
vt 0.965416 0.997326
vt 0.857837 0.029686
vt 0.856514 0.031009
vt 0.829600 0.031009
vt 0.829600 0.029686
vt 0.878576 0.004031
vt 0.878576 0.005355
vt 0.857837 0.005355
vt 0.857837 0.004031
vt 0.802073 0.004031
vt 0.822231 0.004031
vt 0.829600 0.005355
vt 0.829600 0.004031
vt 0.939833 0.551690
vt 0.939833 0.553013
vt 0.911595 0.553013
vt 0.911595 0.551690
vt 0.960572 0.551690
vt 0.960572 0.553013
vt 0.802073 0.552819
vt 0.822231 0.552819
vt 0.878576 0.551495
vt 0.878576 0.552819
vt 0.857837 0.552819
vt 0.857837 0.551495
vt 0.829600 0.552819
vt 0.829600 0.551495
vt 0.740012 0.556853
vt 0.741336 0.556853
vt 0.741336 0.577592
vt 0.740012 0.577592
vt 0.741336 0.605830
vt 0.740012 0.605830
vt 0.799036 0.609810
vt 0.799036 0.608486
vt 0.819194 0.608486
vt 0.819194 0.609810
vt 0.797713 0.609810
vt 0.799036 0.634141
vt 0.797713 0.634141
vt 0.820518 0.609810
vt 0.820518 0.634141
vt 0.819194 0.634141
vt 0.819194 0.635465
vt 0.799036 0.635465
vt 0.718559 0.635660
vt 0.717236 0.635660
vt 0.717236 0.611329
vt 0.718559 0.611329
vt 0.718559 0.636984
vt 0.738717 0.635660
vt 0.738717 0.636984
vt 0.740041 0.635660
vt 0.738717 0.611329
vt 0.740041 0.611329
vt 0.718559 0.610005
vt 0.738717 0.610005
vt 0.903679 0.031009
vt 0.903679 0.525840
vt 0.884263 0.525840
vt 0.884263 0.031009
vt 0.746086 0.525840
vt 0.746086 0.031009
vt 0.765501 0.031009
vt 0.765501 0.525840
vt 0.823526 0.605830
vt 0.823526 0.585091
vt 0.843684 0.585091
vt 0.843684 0.605830
vt 0.793576 0.586609
vt 0.793576 0.607348
vt 0.773418 0.607348
vt 0.773418 0.586609
vt 0.905003 0.527164
vt 0.905003 0.551495
vt 0.884263 0.551495
vt 0.823526 0.556853
vt 0.843684 0.556853
vt 0.773418 0.558371
vt 0.793576 0.558371
vt 0.941156 0.526035
vt 0.941156 0.031204
vt 0.960572 0.031204
vt 0.960572 0.526035
vt 0.878576 0.031009
vt 0.878576 0.525840
vt 0.859161 0.525840
vt 0.859161 0.031009
vt 0.869497 0.558372
vt 0.869497 0.579111
vt 0.849339 0.579111
vt 0.849339 0.558372
vt 0.913114 0.579111
vt 0.913114 0.558372
vt 0.933272 0.558372
vt 0.933272 0.579111
vt 0.939833 0.029881
vt 0.939833 0.005549
vt 0.960572 0.005549
vt 0.869497 0.607348
vt 0.849339 0.607348
vt 0.933272 0.607348
vt 0.913114 0.607348
vt 0.766244 0.611524
vt 0.766244 0.638437
vt 0.746086 0.638437
vt 0.746086 0.611524
vt 0.846721 0.611528
vt 0.846721 0.638441
vt 0.826563 0.638441
vt 0.826563 0.611528
vt 0.904003 0.638441
vt 0.904003 0.611528
vt 0.924161 0.611528
vt 0.924161 0.638441
vt 0.771899 0.639960
vt 0.771899 0.613046
vt 0.792057 0.613046
vt 0.792057 0.639960
vt 0.881032 0.586414
vt 0.879708 0.585090
vt 0.905003 0.032333
vt 0.766825 0.032333
vt 0.766825 0.524517
vt 0.766990 0.576269
vt 0.768314 0.577592
vt 0.939833 0.524711
vt 0.857837 0.524517
vt 0.857837 0.032333

# vertex normals
vn 0.000000 1.000000 0.000000
vn 0.996483 0.083751 -0.002609
vn 0.996483 -0.083751 -0.002609
vn 0.996483 -0.083751 0.002609
vn 0.996483 0.083751 0.002609
vn -0.996483 0.083754 0.002609
vn -0.996483 -0.083754 0.002609
vn -0.996483 -0.083754 -0.002609
vn -0.996483 0.083754 -0.002609
vn 0.001160 0.999873 0.015864
vn 0.045509 0.086919 0.995175
vn 0.044841 0.060988 0.997131
vn 0.043261 0.997865 0.048926
vn 0.036905 0.999319 0.000162
vn 0.036905 0.999319 -0.000162
vn 0.045509 -0.086919 0.995175
vn 0.045511 0.086919 -0.995175
vn 0.001160 0.999873 -0.015864
vn 0.043260 0.997865 -0.048926
vn 0.044840 0.060988 -0.997131
vn 0.045511 -0.086919 -0.995175
vn -0.998107 0.061500 0.000000
vn -0.063500 0.997982 0.000000
vn -0.058069 0.997199 -0.047130
vn -0.997118 0.059550 -0.047007
vn -0.997118 0.059550 0.047007
vn -0.058068 0.997200 0.047130
vn -0.063500 -0.997982 0.000000
vn -0.998107 -0.061500 0.000000
vn -0.997118 -0.059550 -0.047007
vn -0.058069 -0.997199 -0.047130
vn -0.058069 -0.997199 0.047130
vn -0.997118 -0.059550 0.047007
vn 0.001160 -0.999873 0.015864
vn 0.043261 -0.997865 0.048926
vn 0.044841 -0.060988 0.997131
vn 0.036905 -0.999319 0.000162
vn 0.036905 -0.999319 -0.000162
vn 0.001160 -0.999873 -0.015864
vn 0.044840 -0.060988 -0.997131
vn 0.043261 -0.997865 -0.048926
vn -0.057477 -0.059096 0.996596
vn 0.000000 -0.998726 0.050461
vn 0.000000 -0.061499 0.998107
vn -0.057477 0.059096 0.996596
vn 0.043208 -0.997813 0.050022
vn 0.042901 -0.059725 0.997293
vn 0.000000 0.998726 0.050461
vn 0.000000 0.061499 0.998107
vn 0.042901 0.059725 0.997293
vn 0.043208 0.997813 0.050022
vn -0.057474 -0.059096 -0.996596
vn -0.057474 0.059096 -0.996596
vn 0.000000 -0.061499 -0.998107
vn 0.000000 -0.998726 -0.050461
vn 0.042899 -0.059725 -0.997293
vn 0.043208 -0.997813 -0.050022
vn 0.000000 0.998726 -0.050461
vn 0.000000 0.061499 -0.998107
vn 0.043208 0.997813 -0.050022
vn 0.042899 0.059725 -0.997293
vn 0.997007 -0.059446 -0.049431
vn 0.997007 0.059446 -0.049431
vn 0.997007 -0.059445 0.049431
vn 0.997007 0.059445 0.049431
vn 0.997007 -0.059446 0.049431
vn 0.997007 0.059446 0.049431
vn -0.001160 0.999873 -0.015864
vn -0.045511 0.086918 -0.995175
vn -0.044840 0.060988 -0.997131
vn -0.043260 0.997865 -0.048926
vn -0.036905 0.999319 -0.000162
vn -0.036905 0.999319 0.000162
vn -0.045511 -0.086918 -0.995175
vn -0.045509 0.086918 0.995175
vn -0.001160 0.999873 0.015864
vn -0.043261 0.997865 0.048926
vn -0.044841 0.060988 0.997131
vn -0.045509 -0.086918 0.995175
vn 0.998107 0.061501 0.000000
vn 0.063500 0.997982 0.000000
vn 0.058068 0.997200 0.047130
vn 0.997118 0.059551 0.047007
vn 0.997118 0.059551 -0.047007
vn 0.058069 0.997199 -0.047130
vn 0.063500 -0.997982 0.000000
vn 0.998107 -0.061501 0.000000
vn 0.997118 -0.059551 0.047007
vn 0.058069 -0.997199 0.047130
vn 0.058069 -0.997199 -0.047130
vn 0.997118 -0.059551 -0.047007
vn -0.001160 -0.999873 -0.015864
vn -0.043261 -0.997865 -0.048926
vn -0.044840 -0.060988 -0.997131
vn -0.036905 -0.999319 -0.000162
vn -0.036905 -0.999319 0.000162
vn -0.001160 -0.999873 0.015864
vn -0.044841 -0.060988 0.997131
vn -0.043261 -0.997865 0.048926
vn 0.057474 -0.059096 -0.996596
vn 0.057474 0.059096 -0.996596
vn -0.043208 -0.997813 -0.050022
vn -0.042899 -0.059725 -0.997293
vn -0.042899 0.059725 -0.997293
vn -0.043208 0.997813 -0.050022
vn 0.057472 -0.059096 0.996597
vn 0.057472 0.059096 0.996597
vn -0.042897 -0.059725 0.997293
vn -0.043208 -0.997813 0.050022
vn -0.043208 0.997813 0.050022
vn -0.042897 0.059725 0.997293
vn -0.997007 -0.059445 0.049431
vn -0.997007 0.059445 0.049431
vn -0.997007 -0.059445 -0.049431
vn -0.997007 0.059445 -0.049431

# Mesh
g standardCylinder27
usemtl initialShadingGroup
f 4/4/1 1/1/1 2/2/1
f 2/2/1 3/3/1 4/4/1
f 8/8/5 5/5/2 6/6/3
f 6/6/3 7/7/4 8/8/5
f 12/12/9 9/9/6 10/10/7
f 10/10/7 11/11/8 12/12/9
f 16/16/13 13/13/10 14/14/11
f 14/14/11 15/15/12 16/16/13
f 5/5/2 8/8/5 17/17/14
f 17/17/14 18/18/15 5/5/2
f 19/20/16 14/19/11 8/8/5
f 8/8/5 7/7/4 19/20/16
f 23/24/20 20/21/17 21/22/18
f 21/22/18 22/23/19 23/24/20
f 6/6/3 5/5/2 20/25/17
f 20/25/17 24/26/21 6/6/3
f 28/30/25 25/27/22 26/28/23
f 26/28/23 27/29/24 28/30/25
f 30/32/23 26/28/23 25/27/22
f 25/27/22 29/31/22 30/32/23
f 32/34/27 30/32/23 29/31/22
f 29/31/22 31/33/26 32/34/27
f 36/38/31 33/35/28 34/36/29
f 34/36/29 35/37/30 36/38/31
f 38/40/29 34/36/29 33/35/28
f 33/35/28 37/39/28 38/40/29
f 40/42/33 38/40/29 37/39/28
f 37/39/28 39/41/32 40/42/33
f 43/46/36 19/43/16 41/44/34
f 41/44/34 42/45/35 43/46/36
f 45/48/38 44/47/37 7/7/4
f 7/7/4 6/6/3 45/48/38
f 48/52/41 46/49/39 24/50/21
f 24/50/21 47/51/40 48/52/41
f 51/56/44 49/53/42 39/54/32
f 39/54/32 50/55/43 51/56/44
f 31/33/26 40/42/33 49/57/42
f 49/57/42 52/58/45 31/33/26
f 54/60/47 51/56/44 50/55/43
f 50/55/43 53/59/46 54/60/47
f 58/64/51 55/61/48 56/62/49
f 56/62/49 57/63/50 58/64/51
f 52/66/45 56/62/49 55/61/48
f 55/61/48 32/65/27 52/66/45
f 60/68/53 59/67/52 35/37/30
f 35/37/30 28/30/25 60/68/53
f 62/72/55 36/69/31 59/70/52
f 59/70/52 61/71/54 62/72/55
f 64/74/57 62/72/55 61/71/54
f 61/71/54 63/73/56 64/74/57
f 66/78/59 60/75/53 27/76/24
f 27/76/24 65/77/58 66/78/59
f 68/80/61 66/78/59 65/77/58
f 65/77/58 67/79/60 68/80/61
f 70/84/63 69/81/62 47/82/40
f 47/82/40 23/83/20 70/84/63
f 53/87/46 48/85/41 69/81/62
f 69/81/62 71/86/64 53/87/46
f 72/90/65 70/84/63 22/88/19
f 22/88/19 58/89/51 72/90/65
f 71/86/64 72/90/65 57/91/50
f 57/91/50 54/92/47 71/86/64
f 74/96/62 73/93/66 42/94/35
f 42/94/35 64/95/57 74/96/62
f 15/99/12 43/97/36 73/93/66
f 73/93/66 75/98/67 15/99/12
f 67/102/60 16/100/13 75/98/67
f 75/98/67 76/101/63 67/102/60
f 76/101/63 74/96/62 63/103/56
f 63/103/56 68/104/61 76/101/63
f 80/108/71 77/105/68 78/106/69
f 78/106/69 79/107/70 80/108/71
f 9/9/6 12/12/9 81/109/72
f 81/109/72 82/110/73 9/9/6
f 83/112/74 78/111/69 12/12/9
f 12/12/9 11/11/8 83/112/74
f 87/116/78 84/113/75 85/114/76
f 85/114/76 86/115/77 87/116/78
f 10/10/7 9/9/6 84/117/75
f 84/117/75 88/118/79 10/10/7
f 92/122/83 89/119/80 90/120/81
f 90/120/81 91/121/82 92/122/83
f 94/124/81 90/120/81 89/119/80
f 89/119/80 93/123/80 94/124/81
f 96/126/85 94/124/81 93/123/80
f 93/123/80 95/125/84 96/126/85
f 100/130/89 97/127/86 98/128/87
f 98/128/87 99/129/88 100/130/89
f 102/132/87 98/128/87 97/127/86
f 97/127/86 101/131/86 102/132/87
f 104/134/91 102/132/87 101/131/86
f 101/131/86 103/133/90 104/134/91
f 107/138/94 83/135/74 105/136/92
f 105/136/92 106/137/93 107/138/94
f 109/140/96 108/139/95 11/11/8
f 11/11/8 10/10/7 109/140/96
f 112/144/99 110/141/97 88/142/79
f 88/142/79 111/143/98 112/144/99
f 115/148/54 113/145/100 103/146/90
f 103/146/90 114/147/55 115/148/54
f 95/125/84 104/134/91 113/149/100
f 113/149/100 116/150/101 95/125/84
f 118/152/103 115/148/54 114/147/55
f 114/147/55 117/151/102 118/152/103
f 122/156/105 119/153/58 120/154/59
f 120/154/59 121/155/104 122/156/105
f 116/158/101 120/154/59 119/153/58
f 119/153/58 96/157/85 116/158/101
f 124/160/107 123/159/106 99/129/88
f 99/129/88 92/122/83 124/160/107
f 126/164/43 100/161/89 123/162/106
f 123/162/106 125/163/44 126/164/43
f 128/166/109 126/164/43 125/163/44
f 125/163/44 127/165/108 128/166/109
f 130/170/49 124/167/107 91/168/82
f 91/168/82 129/169/48 130/170/49
f 132/172/111 130/170/49 129/169/48
f 129/169/48 131/171/110 132/172/111
f 134/176/113 133/173/112 111/174/98
f 111/174/98 87/175/78 134/176/113
f 117/179/102 112/177/99 133/173/112
f 133/173/112 135/178/114 117/179/102
f 136/182/115 134/176/113 86/180/77
f 86/180/77 122/181/105 136/182/115
f 135/178/114 136/182/115 121/183/104
f 121/183/104 118/184/103 135/178/114
f 138/188/112 137/185/114 106/186/93
f 106/186/93 128/187/109 138/188/112
f 79/191/70 107/189/94 137/185/114
f 137/185/114 139/190/115 79/191/70
f 131/194/110 80/192/71 139/190/115
f 139/190/115 140/193/113 131/194/110
f 140/193/113 138/188/112 127/195/108
f 127/195/108 132/196/111 140/193/113
f 30/200/23 18/197/15 17/198/14
f 17/198/14 26/199/23 30/200/23
f 38/40/29 29/31/22 25/27/22
f 25/27/22 34/36/29 38/40/29
f 45/204/38 37/201/28 33/202/28
f 33/202/28 44/203/37 45/204/38
f 52/208/45 49/205/42 51/206/44
f 51/206/44 56/207/49 52/208/45
f 66/212/59 61/209/54 59/210/52
f 59/210/52 60/211/53 66/212/59
f 39/54/32 37/201/28 45/204/38
f 39/54/32 45/204/38 46/49/39
f 46/49/39 50/55/43 39/54/32
f 71/86/64 69/81/62 70/84/63
f 70/84/63 72/90/65 71/86/64
f 31/33/26 29/31/22 38/40/29
f 38/40/29 40/42/33 31/33/26
f 35/37/30 34/36/29 25/27/22
f 25/27/22 28/30/25 35/37/30
f 27/215/24 26/199/23 17/198/14
f 27/215/24 17/198/14 13/213/10
f 13/213/10 65/214/58 27/215/24
f 76/101/63 75/98/67 73/93/66
f 73/93/66 74/96/62 76/101/63
f 58/64/51 22/23/19 21/22/18
f 21/22/18 55/61/48 58/64/51
f 57/217/50 56/207/49 51/206/44
f 51/206/44 54/216/47 57/217/50
f 53/59/46 50/55/43 46/49/39
f 46/49/39 48/52/41 53/59/46
f 64/74/57 42/45/35 41/44/34
f 41/44/34 62/72/55 64/74/57
f 63/219/56 61/209/54 66/212/59
f 66/212/59 68/218/61 63/219/56
f 67/79/60 65/77/58 13/13/10
f 13/13/10 16/16/13 67/79/60
f 94/223/81 82/220/73 81/221/72
f 81/221/72 90/222/81 94/223/81
f 102/132/87 93/123/80 89/119/80
f 89/119/80 98/128/87 102/132/87
f 109/227/96 101/224/86 97/225/86
f 97/225/86 108/226/95 109/227/96
f 116/231/101 113/228/100 115/229/54
f 115/229/54 120/230/59 116/231/101
f 130/235/49 125/232/44 123/233/106
f 123/233/106 124/234/107 130/235/49
f 103/146/90 101/224/86 109/227/96
f 103/146/90 109/227/96 110/141/97
f 110/141/97 114/147/55 103/146/90
f 135/178/114 133/173/112 134/176/113
f 134/176/113 136/182/115 135/178/114
f 95/125/84 93/123/80 102/132/87
f 102/132/87 104/134/91 95/125/84
f 99/129/88 98/128/87 89/119/80
f 89/119/80 92/122/83 99/129/88
f 91/238/82 90/222/81 81/221/72
f 91/238/82 81/221/72 77/236/68
f 77/236/68 129/237/48 91/238/82
f 140/193/113 139/190/115 137/185/114
f 137/185/114 138/188/112 140/193/113
f 122/156/105 86/115/77 85/114/76
f 85/114/76 119/153/58 122/156/105
f 121/240/104 120/230/59 115/229/54
f 115/229/54 118/239/103 121/240/104
f 117/151/102 114/147/55 110/141/97
f 110/141/97 112/144/99 117/151/102
f 128/166/109 106/137/93 105/136/92
f 105/136/92 126/164/43 128/166/109
f 127/242/108 125/232/44 130/235/49
f 130/235/49 132/241/111 127/242/108
f 131/171/110 129/169/48 77/105/68
f 77/105/68 80/108/71 131/171/110
f 55/61/48 21/22/18 18/197/15
f 55/61/48 18/197/15 30/200/23
f 30/200/23 32/65/27 55/61/48
f 62/72/55 41/44/34 44/203/37
f 62/72/55 44/203/37 33/202/28
f 33/202/28 36/69/31 62/72/55
f 119/153/58 85/114/76 82/220/73
f 119/153/58 82/220/73 94/223/81
f 94/223/81 96/157/85 119/153/58
f 126/164/43 105/136/92 108/226/95
f 126/164/43 108/226/95 97/225/86
f 97/225/86 100/161/89 126/164/43
f 43/246/36 15/243/12 14/244/11
f 14/244/11 19/245/16 43/246/36
f 23/250/20 47/247/40 24/248/21
f 24/248/21 20/249/17 23/250/20
f 107/254/94 79/251/70 78/252/69
f 78/252/69 83/253/74 107/254/94
f 87/258/78 111/255/98 88/256/79
f 88/256/79 84/257/75 87/258/78
f 8/260/5 14/14/11 13/13/10
f 13/13/10 17/259/14 8/260/5
f 21/22/18 20/21/17 5/261/2
f 5/261/2 18/197/15 21/22/18
f 41/44/34 19/43/16 7/262/4
f 7/262/4 44/203/37 41/44/34
f 6/263/3 24/50/21 46/49/39
f 46/49/39 45/204/38 6/263/3
f 39/41/32 49/57/42 40/42/33
f 31/33/26 52/58/45 32/34/27
f 35/37/30 59/67/52 36/38/31
f 27/29/24 60/68/53 28/30/25
f 47/82/40 69/81/62 48/85/41
f 22/88/19 70/84/63 23/83/20
f 57/91/50 72/90/65 58/89/51
f 53/87/46 71/86/64 54/92/47
f 42/94/35 73/93/66 43/97/36
f 15/99/12 75/98/67 16/100/13
f 63/103/56 74/96/62 64/95/57
f 67/102/60 76/101/63 68/104/61
f 12/265/9 78/106/69 77/105/68
f 77/105/68 81/264/72 12/265/9
f 85/114/76 84/113/75 9/266/6
f 9/266/6 82/220/73 85/114/76
f 105/136/92 83/135/74 11/267/8
f 11/267/8 108/226/95 105/136/92
f 10/268/7 88/142/79 110/141/97
f 110/141/97 109/227/96 10/268/7
f 103/133/90 113/149/100 104/134/91
f 95/125/84 116/150/101 96/126/85
f 99/129/88 123/159/106 100/130/89
f 91/121/82 124/160/107 92/122/83
f 111/174/98 133/173/112 112/177/99
f 86/180/77 134/176/113 87/175/78
f 121/183/104 136/182/115 122/181/105
f 117/179/102 135/178/114 118/184/103
f 106/186/93 137/185/114 107/189/94
f 79/191/70 139/190/115 80/192/71
f 127/195/108 138/188/112 128/187/109
f 131/194/110 140/193/113 132/196/111
